<svg width="1754" height="500" viewBox="0 0 1754 500" fill="none" xmlns="http://www.w3.org/2000/svg">
<path d="M236.491 44.3048C240.521 38.0337 241.48 37.6898 245.979 43.3032C254.247 54.1068 262.74 64.9042 270.228 76.266C293.17 111.111 314.631 153.867 308.883 197.457C305.966 219.569 295.934 241.057 283.147 258.785C281.869 260.558 274.841 269.677 274.531 270.746C272.517 273.418 268.103 280.89 266.2 282.598L265.765 282.563C265.078 281.229 268.885 268.069 269.667 265.836C270.152 262.772 270.881 259.507 271.545 256.466C279.962 217.889 269.951 180.7 253.103 145.96C250.919 141.443 248.632 136.98 246.247 132.574C245.324 130.835 242.915 125.42 241.162 125.128C239.466 126.33 237.253 130.681 236.151 132.604C231.811 140.341 227.863 148.309 224.323 156.474C219.763 166.759 215.763 175.781 213.152 186.871C212.658 188.967 211.509 192.646 211.386 194.699C209.575 201.887 206.874 218.989 207.122 226.73C206.88 231.184 207.101 234.663 207.368 239.096C207.573 244.391 209.154 255.033 210.442 260.135C210.443 263.378 215.264 278.088 214.909 280.711L214.6 280.857C213.924 280.472 194.614 253.174 193.025 250.739C178.282 228.141 169.881 198.777 173.05 171.443C173.435 168.119 174.033 164.808 174.401 161.443C174.939 159.358 175.258 157.014 175.8 154.95C177.572 148.203 179.927 139.475 182.795 133.222C182.848 132.432 184.243 128.973 184.647 127.964C190.505 113.322 198.022 99.4916 206.243 86.1677C214.799 72.4384 224.714 59.4379 234.511 46.6494C235.293 45.489 235.47 45.2284 236.491 44.3048Z" fill="#274C77"/>
<path d="M234.51 46.6494C234.574 49.891 233.658 51.2851 231.356 53.7403C229.671 55.5393 230.104 55.3492 229.212 57.5365C226.676 60.9501 221.11 65.891 219.556 69.6385C217.854 73.74 216.503 74.2033 213.859 77.5005C211.703 80.2554 209.968 86.0023 206.242 86.1678C214.798 72.4384 224.713 59.438 234.51 46.6494Z" fill="#274C77"/>
<path d="M182.794 133.222C183.144 140.602 177.612 153.758 175.125 160.735C175.09 160.834 174.469 161.383 174.4 161.443C174.939 159.358 175.257 157.014 175.799 154.95C177.571 148.203 179.926 139.475 182.794 133.222Z" fill="#274C77"/>
<path d="M269.666 265.836C269.734 267.793 270.091 271.726 269.179 273.269C268.983 273.601 269.005 273.878 268.983 274.275L269.244 274.494C271.441 273.327 271.396 270.983 274.53 270.746C272.516 273.418 268.102 280.89 266.2 282.598L265.764 282.563C265.078 281.229 268.884 268.069 269.666 265.836Z" fill="#274C77"/>
<path d="M239.316 203.945C239.45 202.36 240.478 195.47 241.338 194.466C241.902 195.102 242.966 203.696 243.348 205.39C246.24 222.893 247.905 241.22 249.204 258.922C249.362 261.092 249.369 263.109 249.374 265.251L249.407 276.099C249.465 289.993 249.693 304.349 249.535 318.202L249.217 333.445C249.193 335.511 248.196 339.561 250.856 339.793C252.869 338.88 253.475 335.727 254.512 333.922C256.215 330.959 257.391 327.753 259.023 324.763C259.202 324.433 259.123 324.635 259.219 324.266C263.176 321.777 269.4 304.995 272.525 301.055C273.05 300.393 273.162 300.293 273.605 299.54L273.719 299.345L274.005 299.284C274.541 300.72 273.524 302.725 273.421 304.435C273.062 305.539 272.067 307.611 271.884 308.371C270.833 312.748 269.468 316.917 268.153 321.185C267.684 322.704 265.813 328.013 265.645 329.245C265.078 332.03 263.902 335.495 263.2 338.413L254.316 374.956C253.021 380.302 251.819 385.555 251.218 391.031C251.106 392.047 250.844 393.074 250.556 394.052C250.337 396.092 249.702 397.641 249.608 399.623C247.358 403.994 246.542 417.365 245.916 422.769C245.766 424.052 246.157 426.621 246.513 427.885C246.83 429.001 247.036 429.068 248.082 429.231C250.143 428.322 254.099 420.636 255.63 418.243C258.352 414.054 260.954 409.784 263.435 405.437C263.813 404.777 265.755 400.876 265.773 400.866C269.923 398.371 272.219 393.88 274.941 390.032C277.447 386.494 280.319 383.443 283.216 380.46C283.788 380.502 286.772 376.775 287.27 376.157C293.833 368.027 301.457 361.08 309.204 354.212C310.216 353.315 314.38 349.584 315.429 349.328C316.868 347.73 320.768 345.399 322.574 344.122C332.407 337.168 342.252 330.725 353.316 326.045C355.464 325.137 358.43 323.366 360.609 322.865C361.459 322.133 373.6 317.137 375.328 316.543L375.656 316.403C387.905 311.066 400.743 307.995 413.569 304.612C416.231 303.908 418.928 303.264 421.658 302.916C423.958 302.574 424.903 301.013 427.516 301.803C427.187 302.716 422.594 303.773 421.546 304.289C418.343 305.86 414.778 307.149 411.579 308.682C403.544 312.449 395.62 316.466 387.82 320.732C383.584 323.074 378.654 326.15 374.599 328.536C371.716 330.234 359.228 338.606 357.022 338.952C356.246 339.923 342.688 349.103 340.232 350.959C330.786 358.104 321.64 365.485 313.046 373.729C301.863 384.456 291.653 395.746 282.217 408.16C279.586 411.624 276.808 415.023 274.32 418.592C272.501 421.201 270.873 424.788 268.692 426.921C267.02 428.552 261.425 437.686 259.908 440.304C258.866 442.102 258.093 444.535 256.479 445.808C254.481 447.386 245.38 468.898 243.082 472.85C242.912 473.141 242.97 472.995 242.903 473.336C242.637 474.651 242.004 477.051 240.623 477.297C239.26 476.584 237.46 471.789 236.524 469.96C236.236 468.45 229.258 454.3 228.223 452.43C227.481 451.178 226.915 449.416 226.211 448.122C225.567 446.919 223.893 445.852 223.262 444.716C218.564 436.278 212.868 428.636 207.855 420.439C206.404 418.064 203.754 415.376 202.008 413.171L201.75 412.841C201.566 412.267 198.106 408.064 197.408 407.163C186.902 393.594 175.682 380.588 163.504 368.615C162.102 367.237 150.51 357.82 150.325 357.5C148.859 356.622 145.039 353.613 143.793 352.423C142.779 351.805 140.135 349.686 138.804 348.775C138.692 348.724 138.58 348.675 138.468 348.624C135.817 346.612 130.447 342.474 127.594 341.127C127.096 340.62 123.414 338.139 122.646 337.718C118.846 335.818 116.518 334.054 112.939 331.712C108.702 328.987 104.439 326.306 100.151 323.671C91.0058 318.067 82.1106 313.631 72.4245 309.117C69.9426 307.96 64.6303 305.037 62.1596 304.479C60.0776 304.37 58.547 302.767 56.6136 302.254C56.0591 302.107 55.7305 302.237 55.5508 301.594C57.1259 300.59 65.287 303.759 67.3605 304.287C78.3382 307.086 89.3612 309.709 99.9398 313.945C103.984 315.564 109.79 317.072 113.459 319.484C114.099 319.6 117.382 321.252 118.177 321.577C135.307 328.594 150.738 338.715 165.663 349.819C170.85 353.675 175.892 359.056 180.775 363.378C188.637 371.034 195.622 380.007 203.515 387.565C203.929 387.96 204.518 387.858 205.006 387.769C205.496 387.325 205.857 387.193 205.785 386.443C205.424 382.711 199.758 373.824 199.074 370.869C199.183 366.533 187.44 346.466 187.52 345.056L187.728 344.881L187.838 345.107C188.953 347.344 191.936 352.284 193.247 354.447C194.809 357.028 202.148 370.43 203.741 371.454C203.759 372.047 206.994 378.457 207.51 379.74C209.282 384.182 210.948 388.671 212.505 393.201C213.385 395.806 214.349 399.219 215.369 401.666C218.274 408.634 222.52 415.22 226.283 421.731C227.751 424.268 229.32 428.171 230.827 430.272L231.35 431.003C231.951 431.861 231.832 432.228 232.762 432.709C236.101 432.693 233.524 421.74 233.607 419.338C233.681 417.249 233.115 414.426 233.082 412.267C232.212 404.714 230.735 397.191 229.751 389.672C229.275 386.057 227.653 381.108 227.418 377.941C226.258 373.796 225.342 368.829 224.322 364.633C223.014 359.249 222.114 357.609 221.887 351.961C221.437 350.955 219.58 341.954 219.278 340.469C218.829 337.491 217.697 334.598 217.105 331.677C215.788 325.188 213.527 318.98 211.874 312.567C211.643 311.666 210.877 308.889 210.515 308.141C208.331 303.62 207.034 299.201 205.811 294.338C208.252 298.104 225.858 330.815 226.779 331.594C227.449 333.297 229.235 337.846 231.153 337.583C231.785 337.035 231.866 337.023 232.306 336.273C232.492 331.103 231.926 324.073 231.886 318.58C231.756 303.411 231.83 288.239 232.107 273.071C232.201 268.604 232.094 258.139 233.033 253.896C233.207 252.707 233.207 251.659 233.308 250.481C234.55 236.069 236.35 221.498 238.954 207.28C239.152 206.198 239.123 205.062 239.316 203.945Z" fill="#C88100"/>
<path d="M122.646 337.719C118.846 335.819 116.518 334.055 112.939 331.713C108.702 328.988 104.439 326.306 100.151 323.672C91.0058 318.068 82.1106 313.632 72.4245 309.118C69.9426 307.961 64.6303 305.038 62.1596 304.48C60.0776 304.371 58.547 302.768 56.6136 302.254C56.0591 302.108 55.7305 302.238 55.5508 301.595C57.1259 300.591 65.287 303.76 67.3606 304.287C78.3382 307.087 89.3612 309.71 99.9398 313.946C103.985 315.565 109.79 317.073 113.459 319.485C112.021 319.485 111.679 319.106 110.381 318.818C108.57 318.418 106.576 318.379 104.786 317.893C104.147 317.707 102.084 315.217 101.081 314.926C98.9056 314.294 96.9094 314.922 94.8898 313.783C94.8261 313.748 94.2854 313.607 94.2284 313.59L93.8761 313.068L93.531 313.126L93.7861 313.786C93.0284 314.32 90.8858 314.136 89.9012 314.078C90.8697 313.137 91.8361 313.112 92.8165 312.345C89.7154 311.404 85.4767 309.936 82.3174 310.456L82.112 310.691C83.4803 312.94 86.2409 311.829 87.5214 313.871C88.5501 315.509 96.953 320.226 99.0118 320.667C99.793 320.835 100.507 319.801 101.139 320.196C103.159 321.462 101.389 321.546 104.852 322.317C105.253 323.098 104.482 323.493 105.143 323.865C108.226 325.593 111.17 327.384 114.085 329.397C115.269 330.212 116.958 330.763 118.177 331.601C119.383 332.401 120.115 332.085 119.757 333.353C121.516 335.326 121.56 335.261 122.646 337.719Z" fill="#C88100"/>
<path d="M375.327 316.543L375.656 316.403C387.904 311.066 400.743 307.995 413.568 304.612C416.23 303.908 418.928 303.264 421.657 302.916C423.957 302.574 424.902 301.013 427.515 301.803C427.187 302.716 422.594 303.773 421.545 304.289C418.342 305.86 414.777 307.149 411.579 308.683C403.544 312.449 395.62 316.466 387.819 320.732C383.584 323.074 378.653 326.15 374.599 328.536C371.715 330.235 359.228 338.606 357.021 338.952C357.33 338.36 362.162 333.65 362.893 333.171C366.811 330.602 371.273 328.225 375.488 326.231C376.963 325.534 378.101 322.967 380.347 322.904C381.76 322.644 386.156 319.598 387.667 318.669C390.052 317.214 392.482 315.839 394.947 314.54C396.91 313.504 399.004 312.391 401.009 311.475C402.435 310.827 404.498 310.249 405.823 309.579C407.565 308.704 408.573 307.028 410.801 306.94C411.127 306.926 411.051 306.952 411.266 306.761L410.931 306.931L411.065 306.733C408.604 306.619 404.502 308.687 401.749 309.108C393.143 310.423 384.35 316.382 375.636 316.54L375.327 316.543Z" fill="#C88100"/>
<path d="M233.033 253.896C233.122 256.008 232.876 260.177 233.046 261.787C233.551 266.585 233.82 270.76 233.694 275.655C233.681 276.132 233.162 276.752 232.876 277.14C232.863 280.96 232.633 293.79 233.057 297.003L233.124 295.788C233.647 300.253 233.833 303.864 233.554 308.32C233.507 309.038 233.685 310.625 233.567 311.19C233.183 312.893 232.309 314.389 232.385 316.201C232.628 321.991 234.997 327.151 233.761 333.06C233.493 334.347 233.39 335.444 232.306 336.273C232.492 331.104 231.926 324.073 231.886 318.58C231.757 303.411 231.83 288.239 232.107 273.072C232.201 268.604 232.094 258.139 233.033 253.896Z" fill="#C88100"/>
<path d="M201.75 412.842C204.789 412.886 206.388 417.28 208.495 418.938L208.2 419.596C208.821 419.673 208.777 419.684 209.362 419.461C211.662 421.866 212.819 424.777 214.577 427.551C215.016 428.244 217.009 429.25 217.563 430.03L216.937 430.265C219.676 432.184 223.949 442.159 226.958 445.079C227.68 445.776 228.16 451.125 228.223 452.431C227.481 451.178 226.916 449.417 226.211 448.123C225.568 446.919 223.894 445.853 223.262 444.717C218.564 436.278 212.869 428.636 207.856 420.439C206.404 418.065 203.755 415.377 202.008 413.172L201.75 412.842Z" fill="#C88100"/>
<path d="M250.555 394.053C250.426 392.41 250.216 390.465 250.853 389.009C251.242 388.114 249.983 387.552 250.403 385.628C251.036 382.731 252.415 379.98 253.077 377.157C253.385 375.835 253.613 373.565 253.872 372.161C254.049 371.188 253.886 369.708 254.183 368.707L254.726 368.811L255.037 368.381C254.749 366.59 255.587 364.552 255.772 362.852C256.114 359.678 256.403 357.545 258.407 355.066C258.584 354.845 259.091 350.496 259.36 349.792C260.734 346.2 262.462 330.774 265.645 329.246C265.077 332.031 263.901 335.496 263.2 338.414L254.315 374.957C253.021 380.303 251.818 385.556 251.217 391.032C251.105 392.048 250.844 393.075 250.555 394.053Z" fill="#C88100"/>
<path d="M239.314 203.945C239.449 202.36 240.477 195.47 241.337 194.466C241.901 195.102 242.964 203.696 243.347 205.39C242.327 204.264 242.01 202.336 241 202.059C240.068 202.51 239.918 203.097 239.314 203.945Z" fill="#C88100"/>
<path d="M236.523 469.961C239.19 470.69 238.296 472.73 239.697 473.853C240.784 474.269 241.886 473.818 242.903 473.337C242.637 474.652 242.004 477.052 240.623 477.298C239.259 476.585 237.46 471.789 236.523 469.961Z" fill="#C88100"/>
<path d="M143.793 352.424C146.324 352.333 150.267 355.058 150.325 357.5C148.859 356.622 145.039 353.613 143.793 352.424Z" fill="#C88100"/>
<path d="M444.992 174.883C447.943 174.093 450.629 172.851 450.754 177.272L450.761 177.655C449.547 188.553 449.08 199.613 447.779 210.566C445.124 233.825 440.462 256.787 433.848 279.178C432.992 282.087 431.123 290.416 428.993 292.226C428.11 292.974 427.035 293.437 425.949 293.766C422.205 294.898 418.249 295.583 414.451 296.559C406.041 298.718 397.596 301.081 389.346 303.827C387.373 304.482 375.784 309.11 375.06 309.094C373.354 307.661 378.195 297.289 379.027 294.863C384.005 280.372 388.656 265.76 392.974 251.041C393.991 247.651 395.399 243.522 396.152 240.005C396.266 239.468 395.815 239.108 395.491 238.748C393.689 237.921 384.195 242.911 381.711 243.855C380.455 244.468 374.429 247.505 373.491 247.765C365.9 251.968 358.061 255.753 350.688 260.365C345.493 263.615 340.294 266.957 335.359 270.623C320.88 281.376 296.995 302.816 286.998 317.877C285.891 318.269 279.291 326.699 278.547 328.076C278.278 327.442 278.907 327.551 278.569 326.557C278.294 325.744 278.39 323 278.386 321.952C279.955 317.154 281.408 311.866 283.095 307.177C289.358 290.156 297.619 274.003 307.688 259.085C315.621 247.414 324.97 236.857 335.505 227.674C364.213 202.428 407.844 181.493 444.992 174.883Z" fill="#274C77"/>
<path d="M31.1211 177.422C31.1504 173.463 33.0943 174.037 36.0064 174.449C37.3048 175.109 39.4389 175.326 40.9483 175.685C43.9816 176.406 46.8535 176.945 49.8133 177.995C51.1539 178.127 51.4767 178.235 52.7641 178.679C68.6545 182.694 86.3588 190.391 101.057 197.769C103.298 198.893 110.676 202.774 112.53 204.162C117.908 207.012 124.365 211.4 129.384 214.926C144.727 225.706 158.628 238.676 170.082 253.834C171.015 255.068 175.508 261.12 176.065 262.37C179.04 265.89 190.227 286.561 191.623 290.799C192.02 292.4 193.98 296.292 194.704 298.065C196.653 302.83 200.919 312.577 201.897 317.333C201.815 320.795 202.438 323.218 202.304 326.466L202.133 326.494L201.958 326.225C201.173 325.04 200.222 323.769 198.706 323.769C198.412 323.574 194.866 318.411 194.306 317.73C189.851 312.326 185.315 306.726 180.526 301.654C159.056 279.071 133.971 260.542 106.392 246.894C100.558 243.952 93.4254 240.479 87.2973 238.109C86.8181 237.923 86.283 238.048 85.811 238.218C85.5025 238.632 85.2839 238.831 85.4308 239.501C86.2368 243.172 87.6628 247.491 88.7535 251.046C92.88 264.238 97.1467 277.382 101.552 290.474C103.758 296.826 107.254 302.77 107.802 309.278C99.5242 305.802 90.9051 302.575 82.307 300.065C75.9981 298.225 69.5119 296.659 63.128 295.119C60.2668 294.426 55.9673 294.317 53.4836 292.758C51.2605 291.364 41.3683 248.664 40.2116 243.239C39.3567 239.724 38.5218 234.317 37.8202 230.586C37.8553 229.522 36.0527 220.796 35.8001 218.759C34.6356 209.369 33.0426 199.694 32.4054 190.245C31.9481 187.805 31.4877 180.551 31.1211 177.422Z" fill="#274C77"/>
<path d="M52.7637 178.678C68.6541 182.693 86.3584 190.391 101.056 197.768C103.297 198.893 110.676 202.773 112.53 204.162L112.188 204.183C107.428 204.457 107.469 202.694 103.66 200.73C98.6205 198.131 90.8861 196.617 86.7524 192.565C83.9715 192.345 76.1378 188.137 72.676 186.945L58.3703 182.159C56.2129 181.419 53.7809 180.765 52.7637 178.678Z" fill="#274C77"/>
<path d="M176.066 262.37C179.041 265.89 190.228 286.562 191.623 290.8C190.149 290.581 189.006 290.142 187.933 289.02L188.012 288.223C187.62 287.74 187.465 287.498 187.132 286.966L187.962 287.261L188.244 286.766C187.976 286.236 187.97 286.273 187.508 285.904C186.931 285.885 186.686 285.862 186.116 285.772C184.579 284.189 186.064 283.418 185.428 281.822C183.089 275.953 178.865 271.206 176.432 265.435C175.862 264.08 175.982 263.901 176.066 262.37Z" fill="#274C77"/>
<path d="M31.1211 177.422C31.1504 173.463 33.0943 174.037 36.0064 174.449C37.3048 175.109 39.4389 175.326 40.9483 175.685C43.9816 176.406 46.8535 176.945 49.8133 177.995C45.744 178.281 42.7293 178.073 38.7887 177.1C38.1973 176.955 36.8576 177.057 36.2731 176.761C35.3245 175.933 35.3352 175.41 33.7109 175.719C33.4199 176.074 32.7472 176.974 32.6906 177.392C32.1546 181.347 32.8236 186.285 32.4054 190.245C31.9481 187.805 31.4877 180.551 31.1211 177.422Z" fill="#274C77"/>
<path d="M361.292 337.927C362.305 337.622 371.102 331.705 372.832 330.636C385.11 323.05 397.649 316.108 410.688 310.013C414.271 308.338 423.864 303.944 427.593 303.475C426.69 305.622 425.881 307.929 425.051 310.122C424.063 312.743 423.283 315.343 422.222 317.971C420.454 322.355 418.391 326.589 416.475 330.891C410.807 343.612 404.318 356.052 396.321 367.372C395.15 369.03 392.083 373.524 390.818 374.853C388.73 377.822 386.48 380.573 384.131 383.322C380.946 387.743 373.465 394.707 369.473 398.51C348.277 418.703 321.189 432.058 293.532 439.581C283.624 442.279 268.304 446.347 258.17 446.115C258.496 445.738 260.962 441.229 261.176 440.696C262.537 437.304 272.088 425.817 272.624 423.519C280.13 422.853 301.61 409.474 308.418 404.662C309.83 403.663 312.62 401.393 314.167 400.218C318.619 396.477 323.053 392.697 327.276 388.675C330.242 385.847 332.89 382.862 335.727 379.913C336.321 379.054 337.144 378.101 337.832 377.313C343.885 370.376 348.883 362.464 353.807 354.646C355.036 352.697 355.917 350.552 357.07 348.566L357.175 348.385C358.152 345.234 362.027 341.196 361.292 337.927Z" fill="#274C77"/>
<path d="M361.293 337.927C362.305 337.622 371.103 331.705 372.833 330.636C385.11 323.05 397.649 316.108 410.689 310.013C414.272 308.338 423.865 303.944 427.594 303.475C426.691 305.622 425.881 307.929 425.052 310.122C425.041 308.928 425.193 307.33 424.594 306.428C422.361 306.709 420.005 308.185 418.067 309.274C416.831 309.811 414.176 310.097 413.148 310.736C409.829 312.794 408.868 313.738 405.117 314.363C405.18 314.351 398.459 318.531 397.871 318.898C394.547 320.975 391.489 323.029 387.815 324.576C385.768 325.634 385.034 327.021 382.401 328.236C382.167 328.7 381.988 329.082 381.78 329.56C380.227 330.71 379.221 329.976 377.723 330.596C373.903 332.174 370.417 334.414 367.033 336.853C363.117 339.679 362.681 344.727 359.46 347.627C358.707 348.303 358.112 348.319 357.176 348.385C358.153 345.234 362.028 341.196 361.293 337.927Z" fill="#274C77"/>
<path d="M335.728 379.914C335.797 382.247 335.547 383.343 333.826 385.158C331.859 387.23 329.532 388.975 327.308 390.702C327.351 391.204 327.311 390.962 327.425 391.429C323.734 394.893 319.347 400.444 314.168 400.218C318.62 396.478 323.055 392.697 327.277 388.676C330.243 385.848 332.892 382.862 335.728 379.914Z" fill="#274C77"/>
<path d="M384.133 383.323C383.974 379.738 387.05 374.833 390.82 374.854C388.733 377.823 386.482 380.574 384.133 383.323Z" fill="#274C77"/>
<path d="M55.5117 303.441C58.9672 304.424 64.1986 306.394 67.4297 307.879C81.2117 314.215 94.6781 320.916 107.303 329.526C108.126 330.086 109.486 330.437 110.343 331.018C112.096 332.091 113.904 333.664 115.657 334.703C116.792 335.374 119.464 337.705 120.372 337.956C120.302 338.26 120.143 338.683 120.134 338.987C120.079 340.916 125.836 351.278 127.093 353.413C140.946 376.945 158.183 395.486 180.805 410.049C187.214 414.175 194.172 418.262 201.341 420.76C201.623 420.858 201.52 420.79 201.709 420.997C203.303 421.645 206.459 423.174 207.954 423.03C208.582 424.124 212.867 430.4 213.677 431.52C215.885 434.573 221.344 444.234 223.31 446.215C215.999 445.855 209.329 444.638 202.191 442.937C199.377 442.266 196.382 441.74 193.622 440.913C187.754 439.203 181.799 437.637 175.989 435.695C130.883 420.739 93.4696 387.533 72.1911 343.569C69.3541 338.221 66.9529 331.906 64.2146 326.394C62.9451 322.461 60.2909 317.928 58.8805 313.692C57.9965 311.039 56.6977 305.368 55.5117 303.441Z" fill="#274C77"/>
<path d="M201.71 420.997C203.304 421.645 206.46 423.174 207.955 423.03C208.583 424.124 212.868 430.4 213.678 431.52C215.886 434.573 221.345 444.234 223.311 446.216C215.999 445.855 209.33 444.638 202.192 442.937C199.378 442.266 196.383 441.741 193.623 440.913C197.994 440.354 203.461 441.706 207.95 441.717C208.488 441.72 208.771 442.63 208.998 443.081L209.646 442.607C211.64 443.146 213.486 443.395 215.548 443.379C216.182 443.374 216.817 444.278 217.811 444.329C218.654 441.655 215.737 440.999 215.515 439.972C214.34 434.543 211.05 431.931 207.827 427.867C206.443 426.123 206.4 424.629 203.839 423.674C202.751 423.267 201.928 422.24 201.71 420.997Z" fill="#274C77"/>
<path d="M64.2148 326.394C64.9658 326.473 65.6154 326.484 66.0684 327.128C67.452 329.096 68.6755 331.41 69.8076 333.526L69.861 333.473C71.1641 336.565 72.3281 340.197 72.1913 343.568C69.3543 338.22 66.9531 331.905 64.2148 326.394Z" fill="#274C77"/>
<path d="M204.65 295.664C204.71 294.177 203.423 289.925 203.485 289.821C204.944 290.395 205.863 293.292 206.654 294.67L215.465 310.283C216.964 312.988 226.516 329.579 226.779 331.594C225.858 330.815 208.252 298.104 205.811 294.338C207.034 299.2 208.331 303.62 210.516 308.141C210.877 308.889 211.643 311.666 211.875 312.567C213.527 318.98 215.788 325.188 217.105 331.677C217.698 334.598 218.83 337.49 219.278 340.469C219.58 341.954 221.437 350.955 221.887 351.961C222.115 357.609 223.014 359.249 224.323 364.633C225.342 368.829 226.258 373.796 227.419 377.941C227.653 381.108 229.276 386.057 229.752 389.672C230.735 397.191 232.213 404.714 233.082 412.267C233.116 414.426 233.681 417.249 233.608 419.338C233.525 421.74 236.102 432.693 232.763 432.709C231.833 432.228 231.951 431.861 231.35 431.004L230.827 430.272C229.321 428.171 227.752 424.268 226.283 421.731C222.521 415.221 218.275 408.634 215.37 401.666C214.349 399.219 213.386 395.806 212.506 393.201C210.948 388.671 209.282 384.182 207.51 379.74C206.995 378.457 203.76 372.047 203.742 371.454C198.441 359.602 190.549 347.495 183.024 337.033C182.32 336.055 182.25 334.893 180.976 334.612C180.795 336.201 181.875 336.982 182.651 338.369C185.513 343.457 188.25 348.622 190.858 353.854C192.373 356.886 193.846 359.939 195.276 363.016C196.436 365.543 197.664 368.545 199.074 370.869C199.759 373.824 205.425 382.711 205.785 386.443C205.858 387.193 205.497 387.326 205.006 387.769C204.518 387.858 203.929 387.96 203.515 387.565C195.622 380.007 188.637 371.034 180.775 363.378C175.892 359.056 170.851 353.675 165.663 349.819C150.739 338.715 135.308 328.594 118.177 321.577C117.382 321.252 114.1 319.6 113.459 319.484C109.79 317.072 103.985 315.564 99.9402 313.945C89.3616 309.709 78.3386 307.086 67.3609 304.286C65.2874 303.759 57.1263 300.59 55.5512 301.594C55.7309 302.237 56.0594 302.107 56.614 302.253C58.5474 302.767 60.078 304.37 62.16 304.479C64.6307 305.037 69.943 307.96 72.4249 309.117C82.111 313.631 91.0062 318.067 100.151 323.671C104.439 326.305 108.702 328.987 112.939 331.712C116.518 334.054 118.847 335.818 122.646 337.718C123.414 338.139 127.096 340.62 127.594 341.127C130.448 342.474 135.818 346.612 138.468 348.624C138.581 348.675 138.693 348.724 138.805 348.775C140.135 349.686 142.78 351.805 143.794 352.423C145.039 353.613 148.859 356.622 150.326 357.5C150.511 357.82 162.103 367.237 163.504 368.615C175.683 380.588 186.903 393.594 197.408 407.163C198.107 408.064 201.567 412.267 201.75 412.841L202.008 413.171C203.755 415.376 206.404 418.064 207.856 420.439C212.869 428.636 218.564 436.278 223.262 444.716C223.894 445.853 225.568 446.919 226.212 448.122C226.916 449.417 227.481 451.178 228.223 452.43C229.258 454.3 236.236 468.45 236.524 469.96C237.461 471.789 239.26 476.584 240.624 477.298C242.005 477.051 242.638 474.651 242.904 473.336C242.971 472.995 242.912 473.141 243.082 472.851C245.38 468.899 254.482 447.386 256.48 445.808C258.093 444.535 258.867 442.102 259.908 440.304C261.426 437.686 267.021 428.552 268.692 426.921C270.874 424.788 272.501 421.201 274.321 418.592C276.808 415.023 279.587 411.624 282.217 408.16C291.654 395.746 301.864 384.456 313.046 373.729C321.641 365.485 330.787 358.104 340.232 350.959C342.689 349.103 356.247 339.923 357.023 338.952C359.229 338.606 371.716 330.234 374.6 328.536C378.654 326.15 383.585 323.074 387.821 320.732C395.621 316.466 403.545 312.449 411.58 308.682C414.778 307.149 418.344 305.859 421.546 304.289C422.595 303.773 427.188 302.716 427.516 301.803C424.904 301.013 423.958 302.574 421.658 302.916C418.929 303.264 416.231 303.908 413.569 304.612C400.744 307.995 387.905 311.066 375.657 316.403L375.328 316.542C373.601 317.137 361.459 322.133 360.61 322.864C358.431 323.366 355.465 325.137 353.317 326.045C342.253 330.725 332.407 337.167 322.575 344.121C320.769 345.399 316.868 347.73 315.429 349.328C314.381 349.584 310.217 353.315 309.204 354.212C301.457 361.08 293.833 368.027 287.271 376.157C286.772 376.775 283.789 380.502 283.216 380.46C283.822 378.476 295.541 366.545 297.356 364.368C301.012 359.983 307.363 355.843 311.028 351.626C319.855 344.898 329.926 337.377 339.584 332.079C364.479 318.424 391.053 308.703 418.542 302.558C420.605 302.098 428.598 298.812 429.638 301.226C429.448 301.905 429.439 301.947 428.898 302.4L427.595 303.476C423.867 303.945 414.273 308.338 410.69 310.014C397.651 316.108 385.112 323.05 372.834 330.636C371.104 331.705 362.307 337.623 361.294 337.927C357.389 339.895 350.105 345.039 346.321 347.7C320.831 365.569 298.357 387.693 279.803 413.176C278.096 415.513 272.872 420.931 272.626 423.52C272.09 425.818 262.539 437.305 261.178 440.697C260.963 441.229 258.498 445.739 258.172 446.115C258.051 446.159 257.928 446.199 257.807 446.25C254.931 447.449 244.969 472.795 242.358 477.189C241.907 477.948 241.471 478.657 240.644 478.94C238.406 477.899 237.296 473.511 236.129 471.44C233.619 466.984 226.355 448.278 223.312 446.215C221.345 444.233 215.886 434.572 213.678 431.519C212.868 430.399 208.584 424.124 207.956 423.03C207.519 420.555 202.5 415.293 200.902 413.255C189.259 398.413 177.34 383.271 163.699 370.339C153.758 360.915 142.267 352.168 130.99 344.565C128.954 343.197 122.168 338.246 120.374 337.955C119.465 337.704 116.793 335.374 115.658 334.702C113.905 333.664 112.097 332.091 110.345 331.017C109.487 330.437 108.127 330.086 107.305 329.526C94.6792 320.915 81.2127 314.214 67.4307 307.878C64.1996 306.394 58.9682 304.424 55.5127 303.441C55.0693 303.311 54.6484 302.848 53.4307 302.525C52.5208 301.624 52.2903 301.677 51.8086 300.448L52.1826 300.075C54.0235 299.838 56.489 299.874 58.3545 300.069C62.3681 300.992 66.7655 302.992 71.0844 304.056C97.4349 310.562 123.015 320.506 146.277 335.028C154.11 339.939 163.181 346.071 170.206 352.191C178.107 359.119 185.613 366.522 192.686 374.358C194.529 376.378 201.582 384.649 203.407 385.583C204.37 385.142 203.738 383.592 203.389 382.797C201.619 378.761 199.649 374.8 197.768 370.811C194.031 362.683 190.122 354.64 186.044 346.689C183.552 341.917 180.675 337.068 178.313 332.195C178.07 331.696 178.056 331.052 178.253 330.511C179.982 330.046 183.36 336.069 184.414 337.507C193.655 350.172 201.456 363.903 207.662 378.429C208.906 381.313 209.993 384.31 211.22 387.219C213.199 391.907 214.242 397.037 216.265 401.707C219.145 408.357 223.003 414.496 226.504 420.799C227.521 422.597 231.592 431.352 233.138 431.287C235.136 427.827 228.018 379.626 225.816 374.352C225.554 372.428 224.334 367.951 223.833 365.827C223.967 364.3 221.882 358.731 221.534 356.879C218.446 340.778 214.448 324.693 209.478 309.103C208.284 305.36 206.118 299.307 204.65 295.664Z" fill="#C88100"/>
<path d="M204.631 295.664C203.604 294.259 204.111 293.922 203.608 292.744C202.781 290.808 201.778 290.069 201.688 287.762L201.929 287.219C204.181 286.698 206.207 292.418 207.212 294.163C214.972 307.646 223.086 321.24 229.574 335.427C229.876 336.089 229.871 335.95 230.479 336.18C230.875 335.971 230.973 336.034 231.038 335.655C231.534 332.716 230.946 329.098 230.895 326.087L230.734 305.985C230.691 301.766 230.931 297.495 230.872 293.301C230.607 274.393 231.071 255.699 233.543 236.938C234.891 226.704 235.828 216.352 237.906 206.226C238.579 202.96 238.841 194.261 241.159 192.348C243.246 192.076 244.031 203.304 244.366 205.309C247.307 223.833 249.265 242.511 250.235 261.261C250.481 266.828 250.262 273.239 250.323 278.887C250.555 292.035 250.598 305.188 250.454 318.339C250.425 321.347 249.339 337.393 250.772 338.441C252.33 337.349 254.198 332.063 255.11 330.337C257.839 325.165 276.57 287.356 279.873 286.74C281.226 288.013 274.335 301.296 274.538 303.998C274.551 304.18 272.918 308.394 272.739 309.135C270.685 317.588 267.522 325.667 265.504 334.126C258.593 363.108 249.882 391.517 248.177 421.542C248.081 423.241 246.975 428.245 247.78 429.746L249.276 427.13C250.584 425.863 261.568 405.182 263.115 402.092C263.321 401.681 263.863 399.623 263.863 399.623C264.611 396.861 264.985 394.619 266.107 391.629C266.532 392.131 266.851 392.579 266.954 393.243L266.99 393.494C268.4 393.041 269.165 390.312 271.362 389.013C271.362 389.387 271.383 389.299 271.362 389.387C270.903 391.247 270.728 391.339 270.516 393.124C268.836 394.399 273.214 390.134 270.516 393.124C272.512 390.607 274.96 388.102 277.097 385.743C286.619 375.234 295.459 364.152 306.27 354.99C307.499 353.947 309.565 351.868 311.009 351.626C307.343 355.843 300.993 359.983 297.336 364.368C295.521 366.545 283.803 378.476 283.197 380.46C280.3 383.443 277.428 386.494 274.922 390.032C272.2 393.88 269.905 398.371 265.754 400.866C265.736 400.876 263.794 404.777 263.416 405.437C260.935 409.784 258.333 414.054 255.611 418.243C254.08 420.636 249.841 428.837 247.78 429.746C245.252 426.128 249.087 405.097 249.589 399.623C249.683 397.641 250.318 396.092 250.537 394.052C250.825 393.074 251.087 392.047 251.199 391.031C251.8 385.555 253.003 380.302 254.297 374.956L263.181 338.413C263.883 335.495 265.059 332.03 265.627 329.245C265.794 328.013 267.665 322.704 268.134 321.185C269.449 316.917 270.814 312.748 271.865 308.371C272.048 307.611 273.043 305.539 273.403 304.435C274.011 303.541 274.665 301.229 274.73 300.195C274.824 298.668 277.562 292.999 277.289 292.035L276.896 291.94C275.727 293.35 274.793 295.193 273.829 296.791C268.997 304.8 265.325 313.483 260.662 321.601C260.202 322.405 259.578 323.443 259.201 324.266C259.104 324.635 259.183 324.433 259.004 324.763C257.372 327.753 256.197 330.959 254.493 333.922C253.456 335.727 252.851 338.88 250.837 339.793C248.177 339.561 249.174 335.511 249.198 333.445L249.516 318.201C249.674 304.349 249.446 289.993 249.388 276.099L249.355 265.251C249.35 263.109 249.344 261.092 249.185 258.922C247.886 241.22 246.221 222.893 243.329 205.39C242.947 203.696 241.883 195.102 241.319 194.466C240.459 195.47 239.431 202.359 239.297 203.945C239.104 205.062 239.134 206.198 238.935 207.28C236.331 221.497 234.531 236.069 233.289 250.481C233.188 251.659 233.188 252.707 233.014 253.896C232.075 258.139 232.182 268.603 232.088 273.071C231.811 288.239 231.737 303.411 231.867 318.58C231.907 324.073 232.473 331.103 232.287 336.273C231.847 337.023 231.767 337.035 231.134 337.583C229.216 337.846 227.43 333.297 226.76 331.594C226.496 329.579 216.944 312.988 215.446 310.283L206.635 294.67C205.844 293.292 204.925 290.395 203.465 289.821C203.403 289.925 204.69 294.177 204.631 295.664Z" fill="#C88100"/>
<path d="M266.127 391.654C265.997 391.821 268.182 385.509 268.745 384.903C273.418 370.935 279.991 357.985 288.726 346.647C289.372 345.892 289.944 344.591 290.44 343.815C291.985 341.394 299.025 331.898 301.222 331.598L301.432 331.972C300.733 335.381 294.376 344.851 292.349 348.638L276.96 377.607C275.091 381.094 273.294 385.674 271.363 389.013C269.166 390.312 268.42 393.041 267.009 393.494L266.973 393.243C266.871 392.579 266.551 392.156 266.127 391.654ZM271.164 386.475L270.668 386.138C270.277 385.288 270.489 384.451 270.601 383.496C269.964 385.144 267.376 390.443 267.979 391.654C268.02 391.626 270.775 387.044 271.164 386.475Z" fill="#C88100"/>
<path d="M290.196 346.48L291.002 346.332C291.537 346.833 291.351 346.933 291.409 347.967C289.552 351.229 288.065 354.879 286.201 358.132C281.816 365.79 277.813 373.611 273.87 381.522C272.871 383.523 271.89 384.155 271.163 386.476L270.667 386.139C270.276 385.288 270.488 384.452 270.6 383.497C270.544 381.613 272.145 379.138 272.764 376.924C273.434 375.948 273.441 374.735 274.34 373.153C274.59 372.191 275.721 370.56 276.244 369.459C279.024 363.615 282.057 358.162 285.578 352.779C286.847 350.837 288.662 348.811 289.968 346.829L290.196 346.48Z" fill="#C88100"/>
<path d="M274.339 373.153L274.357 373.371C274.684 377.391 275.035 374.273 273.83 378.023L273.528 377.595L273.202 378.387L272.969 378.322L272.764 376.924C273.434 375.948 273.441 374.735 274.339 373.153Z" fill="#C88100"/>
<path d="M294.616 339.817C295.805 338.26 295.613 338.214 297.187 336.903L297.133 336.985L297.643 337.542C297.372 338.246 296.228 340.089 296.237 340.059C295.3 341.592 291.954 346.604 291.409 347.967C291.351 346.934 291.536 346.834 291.002 346.332L290.195 346.48C290.861 344.931 293.425 340.962 294.616 339.817Z" fill="#C88100"/>
<path d="M270.601 383.497C270.489 384.452 270.277 385.288 270.668 386.138L271.164 386.475C270.775 387.044 268.019 391.626 267.979 391.654C267.376 390.444 269.964 385.144 270.601 383.497Z" fill="#C88100"/>
<path d="M199.074 370.869C197.664 368.545 196.435 365.544 195.275 363.016C193.845 359.939 192.372 356.886 190.857 353.854C188.249 348.622 185.513 343.457 182.651 338.369C181.874 336.982 180.795 336.201 180.975 334.612C182.25 334.893 182.319 336.055 183.023 337.033C190.548 347.495 198.44 359.603 203.741 371.454C202.148 370.43 194.809 357.028 193.247 354.447C191.935 352.284 188.953 347.344 187.838 345.107L187.728 344.881L187.52 345.056C187.439 346.466 199.183 366.533 199.074 370.869Z" fill="#C88100"/>
<path d="M201.896 317.333C203.022 319.986 206.765 332.163 206.499 334.651L206.231 334.935C205.22 334.596 199.072 325 198.705 323.768C200.221 323.768 201.173 325.039 201.957 326.224L202.132 326.494L202.304 326.466C202.438 323.218 201.814 320.794 201.896 317.333Z" fill="#274C77"/>
<path d="M259.219 324.265C259.596 323.443 260.22 322.404 260.681 321.6C265.343 313.482 269.015 304.8 273.848 296.791C274.811 295.192 275.745 293.35 276.914 291.939L277.308 292.035C277.58 292.999 274.842 298.668 274.748 300.195C274.684 301.228 274.029 303.54 273.421 304.435C273.524 302.725 274.541 300.72 274.004 299.284L273.718 299.344L273.604 299.539C273.161 300.292 273.05 300.392 272.524 301.054C269.4 304.995 263.175 321.777 259.219 324.265Z" fill="#C88100"/>
<path d="M278.386 321.952C278.391 323 278.295 325.744 278.57 326.557C278.907 327.552 278.279 327.442 278.547 328.077C279.292 326.699 285.892 318.27 286.998 317.877C285.854 319.905 277.133 333.388 276.107 333.983L275.847 333.82C275.373 331.253 277.358 324.471 278.386 321.952Z" fill="#274C77"/>
<path d="M248.081 429.372C247.035 429.208 246.83 429.141 246.512 428.02C246.157 426.75 245.766 424.168 245.916 422.879C246.541 417.449 247.357 404.014 249.608 399.623C249.105 405.123 245.554 425.737 248.081 429.372Z" fill="#C88100"/>
<path d="M223.861 365.097C224.362 367.221 225.554 372.428 225.816 374.352C226.587 374.294 225.027 374.217 225.816 374.352L225.637 373.318C225.458 370.76 224.599 368.307 223.861 365.097Z" fill="#C88100"/>
<path d="M728.415 68.0524L634.035 201.152C626.335 212.152 616.435 217.652 604.775 217.652C593.115 217.652 583.875 212.592 575.955 201.152L483.775 68.0524H537.895L605.875 168.152L675.175 68.0524H728.415ZM801.634 215.232H756.094V68.0524H801.634V215.232ZM972.77 215.232H832.19L861.45 176.952H974.09C983.33 176.952 987.51 174.092 987.51 167.492C987.51 160.672 983.11 157.812 973.65 157.812H894.01C858.15 157.812 837.47 141.532 837.47 113.592C837.47 83.2324 857.93 68.0524 899.51 68.0524H1028.21L998.95 106.332H895.99C886.53 106.332 882.13 109.412 882.13 115.792C882.13 122.392 886.53 125.472 895.99 125.472H976.29C1012.81 125.472 1032.17 140.212 1032.17 168.152C1032.17 200.492 1013.69 215.232 972.77 215.232ZM1109.36 68.0524V120.192H1196.92V68.0524H1242.24V215.232H1196.92V158.472H1109.36V215.232H1063.82V68.0524H1109.36ZM1514.49 68.0524L1420.11 201.152C1412.41 212.152 1402.51 217.652 1390.85 217.652C1379.19 217.652 1369.95 212.592 1362.03 201.152L1269.85 68.0524H1323.97L1391.95 168.152L1461.25 68.0524H1514.49Z" fill="#274C77"/>
<path d="M1483.55 219.412L1577.93 86.3124C1585.63 75.3124 1595.53 69.8124 1607.19 69.8124C1618.85 69.8124 1628.09 74.8724 1636.01 86.3124L1728.19 219.412H1674.07L1606.09 119.312L1536.79 219.412H1483.55Z" fill="#274C77"/>
<path d="M1603.1 164.858C1605.12 161.491 1606.87 161.491 1608.9 164.858L1634.77 206.786C1636.84 210.254 1635.84 211.692 1631.8 211.692H1579.61C1575.57 211.692 1575.15 210.254 1577.23 206.786L1603.1 164.858Z" fill="#C88100"/>
<path d="M600.498 326.232V282.682H583.323V272.561H630.093V282.682H612.919V326.232H600.498ZM672.813 326.232V272.561H713.373V282.529H685.157V316.265H714.37V326.232H672.813ZM684.237 303.844V294.183H710.076V303.844H684.237ZM785.974 327.152C781.834 327.152 777.975 326.488 774.397 325.159C770.87 323.779 767.803 321.837 765.196 319.332C762.589 316.827 760.544 313.888 759.062 310.514C757.631 307.141 756.915 303.435 756.915 299.397C756.915 295.359 757.631 291.653 759.062 288.279C760.544 284.906 762.589 281.967 765.196 279.462C767.854 276.957 770.946 275.04 774.473 273.711C778 272.331 781.859 271.641 786.051 271.641C790.702 271.641 794.894 272.459 798.625 274.095C802.408 275.679 805.577 278.031 808.133 281.149L800.159 288.509C798.319 286.414 796.274 284.855 794.025 283.832C791.776 282.759 789.322 282.222 786.664 282.222C784.16 282.222 781.859 282.631 779.764 283.449C777.668 284.267 775.853 285.442 774.32 286.976C772.787 288.509 771.585 290.324 770.716 292.42C769.899 294.515 769.49 296.841 769.49 299.397C769.49 301.953 769.899 304.278 770.716 306.374C771.585 308.47 772.787 310.284 774.32 311.818C775.853 313.351 777.668 314.527 779.764 315.345C781.859 316.163 784.16 316.572 786.664 316.572C789.322 316.572 791.776 316.06 794.025 315.038C796.274 313.965 798.319 312.355 800.159 310.208L808.133 317.568C805.577 320.686 802.408 323.063 798.625 324.699C794.894 326.335 790.677 327.152 785.974 327.152ZM888.611 326.232V272.561H901.032V326.232H888.611ZM851.808 326.232V272.561H864.229V326.232H851.808ZM863.309 304.227V293.723H889.531V304.227H863.309ZM949.767 326.232V272.561H960.041L991.707 311.205H986.723V272.561H998.991V326.232H988.793L957.051 287.589H962.035V326.232H949.767ZM1073.79 327.152C1069.55 327.152 1065.62 326.462 1061.99 325.082C1058.41 323.702 1055.29 321.76 1052.63 319.255C1050.03 316.751 1047.98 313.811 1046.5 310.438C1045.07 307.064 1044.35 303.384 1044.35 299.397C1044.35 295.41 1045.07 291.73 1046.5 288.356C1047.98 284.982 1050.05 282.043 1052.71 279.539C1055.37 277.034 1058.49 275.092 1062.06 273.711C1065.64 272.331 1069.53 271.641 1073.72 271.641C1077.96 271.641 1081.84 272.331 1085.37 273.711C1088.95 275.092 1092.04 277.034 1094.65 279.539C1097.31 282.043 1099.38 284.982 1100.86 288.356C1102.34 291.678 1103.08 295.359 1103.08 299.397C1103.08 303.384 1102.34 307.09 1100.86 310.514C1099.38 313.888 1097.31 316.827 1094.65 319.332C1092.04 321.785 1088.95 323.702 1085.37 325.082C1081.84 326.462 1077.99 327.152 1073.79 327.152ZM1073.72 316.572C1076.12 316.572 1078.32 316.163 1080.31 315.345C1082.36 314.527 1084.15 313.351 1085.68 311.818C1087.21 310.284 1088.39 308.47 1089.21 306.374C1090.07 304.278 1090.51 301.953 1090.51 299.397C1090.51 296.841 1090.07 294.515 1089.21 292.42C1088.39 290.324 1087.21 288.509 1085.68 286.976C1084.2 285.442 1082.43 284.267 1080.39 283.449C1078.34 282.631 1076.12 282.222 1073.72 282.222C1071.32 282.222 1069.09 282.631 1067.05 283.449C1065.05 284.267 1063.29 285.442 1061.76 286.976C1060.22 288.509 1059.02 290.324 1058.15 292.42C1057.34 294.515 1056.93 296.841 1056.93 299.397C1056.93 301.902 1057.34 304.227 1058.15 306.374C1059.02 308.47 1060.2 310.284 1061.68 311.818C1063.21 313.351 1065 314.527 1067.05 315.345C1069.09 316.163 1071.32 316.572 1073.72 316.572ZM1148.45 326.232V272.561H1160.88V316.112H1187.79V326.232H1148.45ZM1255.93 327.152C1251.69 327.152 1247.76 326.462 1244.13 325.082C1240.55 323.702 1237.43 321.76 1234.77 319.255C1232.17 316.751 1230.12 313.811 1228.64 310.438C1227.21 307.064 1226.49 303.384 1226.49 299.397C1226.49 295.41 1227.21 291.73 1228.64 288.356C1230.12 284.982 1232.19 282.043 1234.85 279.539C1237.51 277.034 1240.63 275.092 1244.2 273.711C1247.78 272.331 1251.67 271.641 1255.86 271.641C1260.1 271.641 1263.99 272.331 1267.51 273.711C1271.09 275.092 1274.18 277.034 1276.79 279.539C1279.45 282.043 1281.52 284.982 1283 288.356C1284.48 291.678 1285.22 295.359 1285.22 299.397C1285.22 303.384 1284.48 307.09 1283 310.514C1281.52 313.888 1279.45 316.827 1276.79 319.332C1274.18 321.785 1271.09 323.702 1267.51 325.082C1263.99 326.462 1260.13 327.152 1255.93 327.152ZM1255.86 316.572C1258.26 316.572 1260.46 316.163 1262.45 315.345C1264.5 314.527 1266.29 313.351 1267.82 311.818C1269.35 310.284 1270.53 308.47 1271.35 306.374C1272.21 304.278 1272.65 301.953 1272.65 299.397C1272.65 296.841 1272.21 294.515 1271.35 292.42C1270.53 290.324 1269.35 288.509 1267.82 286.976C1266.34 285.442 1264.57 284.267 1262.53 283.449C1260.48 282.631 1258.26 282.222 1255.86 282.222C1253.46 282.222 1251.23 282.631 1249.19 283.449C1247.19 284.267 1245.43 285.442 1243.9 286.976C1242.36 288.509 1241.16 290.324 1240.29 292.42C1239.48 294.515 1239.07 296.841 1239.07 299.397C1239.07 301.902 1239.48 304.227 1240.29 306.374C1241.16 308.47 1242.34 310.284 1243.82 311.818C1245.35 313.351 1247.14 314.527 1249.19 315.345C1251.23 316.163 1253.46 316.572 1255.86 316.572ZM1356.51 327.152C1352.27 327.152 1348.36 326.488 1344.78 325.159C1341.25 323.779 1338.16 321.837 1335.5 319.332C1332.9 316.827 1330.85 313.888 1329.37 310.514C1327.94 307.141 1327.22 303.435 1327.22 299.397C1327.22 295.359 1327.94 291.653 1329.37 288.279C1330.85 284.906 1332.92 281.967 1335.58 279.462C1338.24 276.957 1341.35 275.04 1344.93 273.711C1348.51 272.331 1352.45 271.641 1356.74 271.641C1361.49 271.641 1365.76 272.434 1369.54 274.018C1373.38 275.603 1376.6 277.903 1379.21 280.919L1371.23 288.279C1369.29 286.235 1367.17 284.727 1364.87 283.756C1362.57 282.733 1360.06 282.222 1357.35 282.222C1354.75 282.222 1352.37 282.631 1350.22 283.449C1348.08 284.267 1346.21 285.442 1344.63 286.976C1343.09 288.509 1341.89 290.324 1341.02 292.42C1340.2 294.515 1339.8 296.841 1339.8 299.397C1339.8 301.902 1340.2 304.202 1341.02 306.297C1341.89 308.393 1343.09 310.233 1344.63 311.818C1346.21 313.351 1348.05 314.527 1350.15 315.345C1352.29 316.163 1354.64 316.572 1357.2 316.572C1359.65 316.572 1362.03 316.188 1364.33 315.422C1366.68 314.604 1368.96 313.249 1371.15 311.358L1378.21 320.329C1375.3 322.527 1371.9 324.213 1368.01 325.389C1364.18 326.565 1360.34 327.152 1356.51 327.152ZM1378.21 320.329L1366.86 318.718V298.553H1378.21V320.329ZM1425.78 326.232V272.561H1438.2V326.232H1425.78ZM1486.98 326.232V272.561H1527.54V282.529H1499.32V316.265H1528.53V326.232H1486.98ZM1498.4 303.844V294.183H1524.24V303.844H1498.4ZM1592.09 327.152C1587.79 327.152 1583.68 326.59 1579.74 325.466C1575.81 324.29 1572.64 322.782 1570.24 320.942L1574.45 311.588C1576.75 313.224 1579.46 314.578 1582.58 315.652C1585.75 316.674 1588.94 317.185 1592.17 317.185C1594.62 317.185 1596.59 316.955 1598.07 316.495C1599.6 315.984 1600.73 315.294 1601.44 314.425C1602.16 313.556 1602.52 312.559 1602.52 311.435C1602.52 310.003 1601.95 308.879 1600.83 308.061C1599.7 307.192 1598.22 306.502 1596.38 305.991C1594.54 305.428 1592.5 304.917 1590.25 304.457C1588.05 303.946 1585.83 303.333 1583.58 302.617C1581.38 301.902 1579.36 300.981 1577.52 299.857C1575.68 298.732 1574.17 297.25 1573 295.41C1571.87 293.57 1571.31 291.218 1571.31 288.356C1571.31 285.289 1572.13 282.503 1573.76 279.999C1575.45 277.443 1577.96 275.424 1581.28 273.941C1584.65 272.408 1588.87 271.641 1593.93 271.641C1597.3 271.641 1600.62 272.05 1603.9 272.868C1607.17 273.635 1610.06 274.81 1612.56 276.395L1608.73 285.826C1606.22 284.395 1603.72 283.347 1601.21 282.682C1598.71 281.967 1596.25 281.609 1593.85 281.609C1591.45 281.609 1589.48 281.89 1587.95 282.452C1586.41 283.014 1585.32 283.756 1584.65 284.676C1583.99 285.545 1583.65 286.567 1583.65 287.743C1583.65 289.123 1584.22 290.247 1585.34 291.116C1586.47 291.934 1587.95 292.599 1589.79 293.11C1591.63 293.621 1593.65 294.132 1595.85 294.643C1598.09 295.154 1600.32 295.742 1602.52 296.407C1604.77 297.071 1606.81 297.966 1608.65 299.09C1610.49 300.215 1611.97 301.697 1613.1 303.537C1614.27 305.377 1614.86 307.703 1614.86 310.514C1614.86 313.53 1614.02 316.29 1612.33 318.795C1610.64 321.3 1608.11 323.319 1604.74 324.852C1601.42 326.386 1597.2 327.152 1592.09 327.152Z" fill="#C88100"/>
<path d="M574.147 361.589L583 370.442L591.853 361.589L583 352.735L574.147 361.589ZM1625.85 361.589L1617 352.735L1608.15 361.589L1617 370.442L1625.85 361.589ZM583 361.589V363.122H1617V361.589V360.055H583V361.589Z" fill="#636363"/>
<path d="M612.061 386.225V414.768H606.337V386.225H612.061ZM649.491 414.768H643.766L630.803 395.18V414.768H625.078V386.184H630.803L643.766 405.812V386.184H649.491V414.768ZM686.922 414.768H681.197L668.234 395.18V414.768H662.509V386.184H668.234L681.197 405.812V386.184H686.922V414.768ZM713.189 415.054C710.517 415.054 708.064 414.427 705.828 413.173C703.593 411.919 701.821 410.188 700.512 407.979C699.204 405.744 698.55 403.222 698.55 400.414C698.55 397.634 699.204 395.139 700.512 392.931C701.821 390.696 703.593 388.951 705.828 387.697C708.064 386.443 710.517 385.816 713.189 385.816C715.888 385.816 718.341 386.443 720.55 387.697C722.785 388.951 724.543 390.696 725.825 392.931C727.133 395.139 727.787 397.634 727.787 400.414C727.787 403.222 727.133 405.744 725.825 407.979C724.543 410.188 722.785 411.919 720.55 413.173C718.314 414.427 715.861 415.054 713.189 415.054ZM713.189 409.942C714.906 409.942 716.419 409.561 717.728 408.797C719.037 408.007 720.059 406.889 720.795 405.444C721.531 403.999 721.899 402.323 721.899 400.414C721.899 398.506 721.531 396.843 720.795 395.426C720.059 393.981 719.037 392.877 717.728 392.113C716.419 391.35 714.906 390.968 713.189 390.968C711.471 390.968 709.945 391.35 708.609 392.113C707.3 392.877 706.278 393.981 705.542 395.426C704.806 396.843 704.438 398.506 704.438 400.414C704.438 402.323 704.806 403.999 705.542 405.444C706.278 406.889 707.3 408.007 708.609 408.797C709.945 409.561 711.471 409.942 713.189 409.942ZM765.047 386.225L754.578 414.768H747.627L737.158 386.225H743.292L751.143 408.92L758.954 386.225H765.047ZM793.342 409.329H781.974L780.092 414.768H774.081L784.345 386.184H791.011L801.275 414.768H795.223L793.342 409.329ZM791.788 404.749L787.658 392.808L783.527 404.749H791.788ZM831.896 386.225V390.846H824.29V414.768H818.565V390.846H810.959V386.225H831.896ZM849.158 390.846V398.002H858.768V402.541H849.158V410.106H859.995V414.768H843.433V386.184H859.995V390.846H849.158Z" fill="#636363"/>
<path d="M938.488 396.079C936.972 396.079 935.517 396.682 934.445 397.754C933.372 398.827 932.77 400.281 932.77 401.798C932.77 403.315 933.372 404.769 934.445 405.842C935.517 406.914 936.972 407.517 938.488 407.517C941.662 407.517 944.207 404.972 944.207 401.798C944.207 400.281 943.605 398.827 942.532 397.754C941.46 396.682 940.005 396.079 938.488 396.079Z" fill="#636363"/>
<path d="M1033.61 409.329H1022.24L1020.36 414.768H1014.35L1024.61 386.184H1031.28L1041.54 414.768H1035.49L1033.61 409.329ZM1032.05 404.749L1027.92 392.808L1023.79 404.749H1032.05ZM1058.38 386.225V403.89C1058.38 405.826 1058.89 407.312 1059.89 408.347C1060.9 409.356 1062.32 409.861 1064.15 409.861C1066 409.861 1067.43 409.356 1068.44 408.347C1069.45 407.312 1069.95 405.826 1069.95 403.89V386.225H1075.72V403.849C1075.72 406.276 1075.19 408.334 1074.12 410.024C1073.09 411.687 1071.68 412.941 1069.91 413.786C1068.17 414.631 1066.22 415.054 1064.07 415.054C1061.94 415.054 1060 414.631 1058.26 413.786C1056.54 412.941 1055.18 411.687 1054.17 410.024C1053.16 408.334 1052.66 406.276 1052.66 403.849V386.225H1058.38ZM1108.04 386.225V390.846H1100.43V414.768H1094.7V390.846H1087.1V386.225H1108.04ZM1132.82 415.054C1130.15 415.054 1127.7 414.427 1125.46 413.173C1123.23 411.919 1121.45 410.188 1120.15 407.979C1118.84 405.744 1118.18 403.222 1118.18 400.414C1118.18 397.634 1118.84 395.139 1120.15 392.931C1121.45 390.696 1123.23 388.951 1125.46 387.697C1127.7 386.443 1130.15 385.816 1132.82 385.816C1135.52 385.816 1137.97 386.443 1140.18 387.697C1142.42 388.951 1144.18 390.696 1145.46 392.931C1146.77 395.139 1147.42 397.634 1147.42 400.414C1147.42 403.222 1146.77 405.744 1145.46 407.979C1144.18 410.188 1142.42 411.919 1140.18 413.173C1137.95 414.427 1135.49 415.054 1132.82 415.054ZM1132.82 409.942C1134.54 409.942 1136.05 409.561 1137.36 408.797C1138.67 408.007 1139.69 406.889 1140.43 405.444C1141.16 403.999 1141.53 402.323 1141.53 400.414C1141.53 398.506 1141.16 396.843 1140.43 395.426C1139.69 393.981 1138.67 392.877 1137.36 392.113C1136.05 391.35 1134.54 390.968 1132.82 390.968C1131.1 390.968 1129.58 391.35 1128.24 392.113C1126.93 392.877 1125.91 393.981 1125.17 395.426C1124.44 396.843 1124.07 398.506 1124.07 400.414C1124.07 402.323 1124.44 403.999 1125.17 405.444C1125.91 406.889 1126.93 408.007 1128.24 408.797C1129.58 409.561 1131.1 409.942 1132.82 409.942ZM1190.16 386.225V414.768H1184.43V396.203L1176.79 414.768H1172.45L1164.77 396.203V414.768H1159.04V386.225H1165.54L1174.62 407.448L1183.7 386.225H1190.16ZM1220.68 409.329H1209.31L1207.43 414.768H1201.42L1211.69 386.184H1218.35L1228.61 414.768H1222.56L1220.68 409.329ZM1219.13 404.749L1215 392.808L1210.87 404.749H1219.13ZM1259.24 386.225V390.846H1251.63V414.768H1245.9V390.846H1238.3V386.225H1259.24ZM1276.5 390.846V398.002H1286.11V402.541H1276.5V410.106H1287.33V414.768H1270.77V386.184H1287.33V390.846H1276.5Z" fill="#636363"/>
<path d="M1366.04 396.079C1364.53 396.079 1363.07 396.682 1362 397.754C1360.93 398.827 1360.32 400.281 1360.32 401.798C1360.32 403.315 1360.93 404.769 1362 405.842C1363.07 406.914 1364.53 407.517 1366.04 407.517C1369.22 407.517 1371.76 404.972 1371.76 401.798C1371.76 400.281 1371.16 398.827 1370.09 397.754C1369.01 396.682 1367.56 396.079 1366.04 396.079Z" fill="#636363"/>
<path d="M1453.45 415.054C1451.46 415.054 1449.67 414.713 1448.06 414.032C1446.48 413.35 1445.22 412.369 1444.29 411.087C1443.37 409.806 1442.89 408.293 1442.86 406.548H1449C1449.08 407.72 1449.49 408.647 1450.22 409.329C1450.99 410.01 1452.02 410.351 1453.33 410.351C1454.67 410.351 1455.72 410.038 1456.48 409.411C1457.24 408.756 1457.63 407.911 1457.63 406.875C1457.63 406.03 1457.37 405.335 1456.85 404.79C1456.33 404.245 1455.68 403.822 1454.89 403.522C1454.12 403.195 1453.06 402.841 1451.7 402.459C1449.84 401.914 1448.33 401.382 1447.16 400.864C1446.01 400.319 1445.02 399.515 1444.17 398.452C1443.35 397.361 1442.95 395.916 1442.95 394.117C1442.95 392.427 1443.37 390.955 1444.21 389.701C1445.06 388.447 1446.24 387.492 1447.77 386.838C1449.3 386.157 1451.04 385.816 1453 385.816C1455.95 385.816 1458.33 386.538 1460.16 387.983C1462.01 389.401 1463.04 391.391 1463.23 393.953H1456.93C1456.88 392.972 1456.45 392.168 1455.66 391.541C1454.9 390.887 1453.88 390.559 1452.6 390.559C1451.48 390.559 1450.58 390.846 1449.9 391.418C1449.24 391.991 1448.92 392.822 1448.92 393.913C1448.92 394.676 1449.16 395.317 1449.65 395.834C1450.17 396.325 1450.8 396.734 1451.53 397.061C1452.3 397.361 1453.36 397.716 1454.72 398.124C1456.58 398.67 1458.09 399.215 1459.26 399.76C1460.43 400.305 1461.44 401.123 1462.29 402.214C1463.13 403.304 1463.55 404.735 1463.55 406.507C1463.55 408.034 1463.16 409.452 1462.37 410.76C1461.58 412.069 1460.42 413.118 1458.89 413.909C1457.37 414.672 1455.55 415.054 1453.45 415.054ZM1474.49 400.455C1474.49 397.647 1475.12 395.139 1476.37 392.931C1477.65 390.696 1479.38 388.965 1481.56 387.738C1483.77 386.484 1486.24 385.857 1488.96 385.857C1492.15 385.857 1494.95 386.675 1497.35 388.31C1499.75 389.946 1501.42 392.209 1502.38 395.098H1495.79C1495.14 393.735 1494.21 392.713 1493.01 392.031C1491.84 391.35 1490.48 391.009 1488.92 391.009C1487.26 391.009 1485.77 391.404 1484.47 392.195C1483.18 392.958 1482.18 394.049 1481.44 395.466C1480.73 396.884 1480.38 398.547 1480.38 400.455C1480.38 402.336 1480.73 403.999 1481.44 405.444C1482.18 406.862 1483.18 407.966 1484.47 408.756C1485.77 409.52 1487.26 409.901 1488.92 409.901C1490.48 409.901 1491.84 409.561 1493.01 408.879C1494.21 408.17 1495.14 407.134 1495.79 405.771H1502.38C1501.42 408.688 1499.75 410.965 1497.35 412.6C1494.98 414.209 1492.18 415.013 1488.96 415.013C1486.24 415.013 1483.77 414.4 1481.56 413.173C1479.38 411.919 1477.65 410.188 1476.37 407.979C1475.12 405.771 1474.49 403.263 1474.49 400.455ZM1532.13 409.329H1520.76L1518.88 414.768H1512.87L1523.13 386.184H1529.8L1540.06 414.768H1534.01L1532.13 409.329ZM1530.58 404.749L1526.45 392.808L1522.32 404.749H1530.58ZM1556.98 410.229H1566.39V414.768H1551.26V386.225H1556.98V410.229ZM1583.11 390.846V398.002H1592.72V402.541H1583.11V410.106H1593.95V414.768H1577.39V386.184H1593.95V390.846H1583.11Z" fill="#636363"/>
</svg>
